<svg width="53" height="50" viewBox="0 0 53 50" fill="none" xmlns="http://www.w3.org/2000/svg">
<path fill-rule="evenodd" clip-rule="evenodd" d="M42.9091 4H18.3636C16.032 4 14.011 5.33 13.0179 7.27273H8.74006C9.9272 3.07545 13.7863 0 18.3636 0H42.9091C48.4319 0 52.9091 4.47715 52.9091 10V40C52.9091 45.5228 48.4319 50 42.9091 50H18.3636C13.7863 50 9.92721 46.9246 8.74006 42.7273H13.0179C14.011 44.67 16.032 46 18.3636 46H42.9091C46.2228 46 48.9091 43.3137 48.9091 40V10C48.9091 6.6863 46.2228 4 42.9091 4ZM0.585786 25.9597L13.3137 38.6876C14.0948 39.4686 15.3611 39.4686 16.1421 38.6876C16.9232 37.9065 16.9232 36.6402 16.1421 35.8592L6.82843 26.5455H37.4545V22.5455H6.82843L16.1421 13.2317C16.9232 12.4507 16.9232 11.1844 16.1421 10.4033C15.3611 9.62227 14.0948 9.62227 13.3137 10.4033L0.585786 23.1312C-0.195262 23.9123 -0.195262 25.1786 0.585786 25.9597Z" fill="#6A472E"/>
</svg>
