<svg width="45" height="51" viewBox="0 0 45 51" fill="none" xmlns="http://www.w3.org/2000/svg">
<path fill-rule="evenodd" clip-rule="evenodd" d="M40 3.5H14C12.8954 3.5 12 4.39543 12 5.5H9C9 2.73858 11.2386 0.5 14 0.5H40C42.7614 0.5 45 2.73858 45 5.5V36.5C45 39.2614 42.7614 41.5 40 41.5V38.5C41.1046 38.5 42 37.6046 42 36.5V5.5C42 4.39543 41.1046 3.5 40 3.5ZM5 12.5H31C32.1046 12.5 33 13.3954 33 14.5V45.5C33 46.6046 32.1046 47.5 31 47.5H5C3.89543 47.5 3 46.6046 3 45.5V14.5C3 13.3954 3.89543 12.5 5 12.5ZM0 14.5C0 11.7386 2.23858 9.5 5 9.5H31C33.7614 9.5 36 11.7386 36 14.5V45.5C36 48.2614 33.7614 50.5 31 50.5H5C2.23858 50.5 0 48.2614 0 45.5V14.5Z" fill="#C59F67"/>
</svg>
